<svg version="1.1" id="Layer_1" xmlns="http://www.w3.org/2000/svg" xmlns:xlink="http://www.w3.org/1999/xlink" x="0px" y="0px"
	 width="100%" viewBox="0 0 203 194" enable-background="new 0 0 203 194" xml:space="preserve">
<path fill="#2F528F" opacity="1.000000" stroke="none" 
	d="
M204.000000,2.000000 
	C204.000000,66.285515 204.000000,130.571030 204.000000,194.928268 
	C136.431519,194.928268 68.862938,194.928268 1.000000,194.928268 
	C1.000000,130.979401 1.000000,66.958359 1.468657,2.468657 
	C69.291542,2.000000 136.645767,2.000000 204.000000,2.000000 
M2.000891,184.426666 
	C2.047298,193.777512 1.230334,192.990677 10.687176,192.992630 
	C72.185120,193.005325 133.683075,193.000885 195.181015,192.996323 
	C201.981476,192.995804 201.996185,192.979004 201.996658,186.058563 
	C202.000671,127.560516 202.001480,69.062469 201.995224,10.564423 
	C201.994522,4.024375 201.971390,4.004689 195.304031,4.004133 
	C133.139435,3.998949 70.974846,3.999208 8.810256,4.003685 
	C2.018241,4.004175 2.003792,4.021079 2.003302,10.950125 
	C1.999240,68.448204 2.000935,125.946289 2.000891,184.426666 
z"/>
<path fill="#FFFFFF" opacity="1.000000" stroke="none" 
	d="
M204.000000,1.500000 
	C136.645767,2.000000 69.291542,2.000000 1.468657,2.000000 
	C2.333333,1.666667 3.666458,1.042655 5.000030,1.041699 
	C71.333328,0.994156 137.666672,1.000000 204.000000,1.500000 
z"/>
<path fill="#676767" opacity="1.000000" stroke="none" 
	d="
M2.000891,183.935516 
	C2.000935,125.946289 1.999240,68.448204 2.003302,10.950125 
	C2.003792,4.021079 2.018241,4.004175 8.810256,4.003685 
	C70.974846,3.999208 133.139435,3.998949 195.304031,4.004133 
	C201.971390,4.004689 201.994522,4.024375 201.995224,10.564423 
	C202.001480,69.062469 202.000671,127.560516 201.996658,186.058563 
	C201.996185,192.979004 201.981476,192.995804 195.181015,192.996323 
	C133.683075,193.000885 72.185120,193.005325 10.687176,192.992630 
	C1.230334,192.990677 2.047298,193.777512 2.000891,183.935516 
M127.979614,40.635216 
	C126.825562,42.092201 125.769043,43.641422 124.496834,44.986671 
	C121.970573,47.657978 118.773186,49.871220 116.870781,52.910698 
	C114.550201,56.618305 113.276466,60.981125 111.920723,64.184509 
	C103.986122,64.184509 96.727669,63.399975 89.741196,64.440941 
	C84.465256,65.227036 82.791145,62.919285 80.927269,59.179768 
	C82.475754,57.767841 83.864746,56.587025 85.156387,55.307899 
	C89.421982,51.083641 90.629005,46.632156 88.609337,42.790878 
	C86.753387,39.260979 76.088196,33.043060 73.027473,34.025108 
	C71.386757,34.551540 69.681908,35.670570 68.618515,37.008877 
	C67.200600,38.793350 65.985001,40.943211 65.384766,43.128975 
	C64.233208,47.322392 62.744030,50.420219 57.474098,50.100849 
	C55.759872,49.996967 53.412418,51.229660 52.284069,52.610535 
	C50.378155,54.942986 48.605648,56.634335 45.355263,56.453419 
	C44.637741,56.413479 43.837955,57.851471 43.076046,58.608910 
	C43.994263,59.380024 44.800194,60.461250 45.858829,60.844563 
	C47.213192,61.334957 49.553177,60.715927 50.116165,61.520824 
	C54.144325,67.279831 59.780621,67.198120 65.163246,66.040154 
	C67.512238,69.370735 69.499741,72.188766 71.267288,74.694946 
	C69.145241,78.776138 66.709099,82.579498 65.132820,86.710930 
	C63.052391,92.163765 64.868622,96.897888 69.012733,98.714264 
	C73.192978,100.546478 77.726440,98.586044 80.314049,93.254059 
	C82.174309,89.420845 83.378189,85.269089 84.843620,81.343124 
	C92.871292,81.343124 101.113304,81.343124 108.717903,81.343124 
	C110.444504,85.896774 111.654541,90.053635 113.558144,93.863998 
	C115.935020,98.621658 120.226959,100.340431 124.275154,98.818024 
	C128.141113,97.364151 130.340973,92.888573 128.726196,87.888542 
	C127.282700,83.418884 124.854492,79.267235 123.417915,76.174629 
	C126.591133,68.940353 129.721069,62.089417 132.549072,55.116035 
	C133.110992,53.730442 133.041489,51.596043 132.348419,50.293774 
	C130.759598,47.308430 131.141037,44.771133 132.434662,41.835274 
	C133.010468,40.528488 132.244797,38.630615 132.088013,37.001022 
	C130.803497,37.989155 129.518982,38.977283 127.979614,40.635216 
M111.017929,146.749268 
	C111.189491,148.847992 111.361046,150.946716 111.532608,153.045441 
	C112.108307,153.054321 112.684006,153.063217 113.259705,153.072098 
	C113.461609,151.118576 113.398438,149.087463 113.940918,147.233612 
	C114.470329,145.424408 115.618492,143.796249 116.495018,142.088623 
	C117.310959,143.855255 118.427322,145.552521 118.855881,147.408600 
	C119.260796,149.162247 118.942825,151.082809 118.942825,154.152039 
	C121.916954,150.125641 122.086716,143.193741 120.040237,141.174194 
	C119.399773,140.542145 118.323357,140.045227 117.433548,140.023773 
	C112.765121,139.911255 108.092545,139.971161 102.872353,139.971161 
	C103.199905,144.937744 103.464867,148.955292 103.729820,152.972839 
	C104.482048,152.924118 105.234268,152.875412 105.986488,152.826706 
	C105.986488,150.605972 105.644470,148.311264 106.103386,146.189804 
	C106.424133,144.707108 107.840492,143.461441 108.767494,142.109894 
	C109.516586,143.366165 110.265686,144.622421 111.017929,146.749268 
M72.011154,141.676056 
	C72.011154,145.442184 72.011154,149.208313 72.011154,152.974442 
	C72.732285,153.009521 73.453407,153.044601 74.174538,153.079681 
	C74.549736,150.556351 74.924934,148.033035 75.327118,145.328247 
	C77.464668,145.328247 79.525177,145.328247 81.745667,145.328247 
	C81.973366,148.036179 82.181587,150.512329 82.441498,153.603256 
	C85.916763,149.829971 85.643440,138.096603 82.418953,135.999878 
	C82.142426,138.346619 81.884766,140.533249 81.643341,142.582092 
	C79.226051,142.582092 77.162460,142.582092 75.369560,142.582092 
	C74.848991,140.079056 74.413506,137.985123 73.978020,135.891205 
	C73.431793,135.960571 72.885559,136.029953 72.339325,136.099335 
	C72.229996,137.647629 72.120667,139.195938 72.011154,141.676056 
M134.217117,150.370789 
	C131.200317,151.046082 127.991508,152.163254 127.091957,147.240616 
	C130.054947,147.089951 132.770081,146.951904 135.825485,146.796555 
	C135.297043,143.016434 134.617813,139.729828 130.746994,140.167557 
	C128.607895,140.409454 125.958023,142.218079 124.849571,144.094849 
	C123.093735,147.067734 123.958832,150.615387 127.162071,152.237076 
	C129.552872,153.447433 132.816849,154.556824 134.217117,150.370789 
M88.584282,144.221146 
	C87.665619,148.181000 88.162880,151.704666 92.640434,152.885345 
	C95.725342,153.698837 98.774467,152.880249 99.902176,149.392349 
	C100.971748,146.084290 101.090782,142.367859 97.569366,140.619736 
	C94.262466,138.978119 90.716576,139.334824 88.584282,144.221146 
z"/>
<path fill="#F8BC05" opacity="1.000000" stroke="none" 
	d="
M128.107040,40.300316 
	C129.518982,38.977283 130.803497,37.989155 132.088013,37.001022 
	C132.244797,38.630615 133.010468,40.528488 132.434662,41.835274 
	C131.141037,44.771133 130.759598,47.308430 132.348419,50.293774 
	C133.041489,51.596043 133.110992,53.730442 132.549072,55.116035 
	C129.721069,62.089417 126.591133,68.940353 123.417915,76.174629 
	C124.854492,79.267235 127.282700,83.418884 128.726196,87.888542 
	C130.340973,92.888573 128.141113,97.364151 124.275154,98.818024 
	C120.226959,100.340431 115.935020,98.621658 113.558144,93.863998 
	C111.654541,90.053635 110.444504,85.896774 108.717903,81.343124 
	C101.113304,81.343124 92.871292,81.343124 84.843620,81.343124 
	C83.378189,85.269089 82.174309,89.420845 80.314049,93.254059 
	C77.726440,98.586044 73.192978,100.546478 69.012733,98.714264 
	C64.868622,96.897888 63.052391,92.163765 65.132820,86.710930 
	C66.709099,82.579498 69.145241,78.776138 71.267288,74.694946 
	C69.499741,72.188766 67.512238,69.370735 65.163246,66.040154 
	C59.780621,67.198120 54.144325,67.279831 50.116165,61.520824 
	C49.553177,60.715927 47.213192,61.334957 45.858829,60.844563 
	C44.800194,60.461250 43.994263,59.380024 43.076046,58.608910 
	C43.837955,57.851471 44.637741,56.413479 45.355263,56.453419 
	C48.605648,56.634335 50.378155,54.942986 52.284069,52.610535 
	C53.412418,51.229660 55.759872,49.996967 57.474098,50.100849 
	C62.744030,50.420219 64.233208,47.322392 65.384766,43.128975 
	C65.985001,40.943211 67.200600,38.793350 68.618515,37.008877 
	C69.681908,35.670570 71.386757,34.551540 73.027473,34.025108 
	C76.088196,33.043060 86.753387,39.260979 88.609337,42.790878 
	C90.629005,46.632156 89.421982,51.083641 85.156387,55.307899 
	C83.864746,56.587025 82.475754,57.767841 80.927269,59.179768 
	C82.791145,62.919285 84.465256,65.227036 89.741196,64.440941 
	C96.727669,63.399975 103.986122,64.184509 111.920723,64.184509 
	C113.276466,60.981125 114.550201,56.618305 116.870781,52.910698 
	C118.773186,49.871220 121.970573,47.657978 124.496834,44.986671 
	C125.769043,43.641422 126.825562,42.092201 128.107040,40.300316 
M99.460922,76.836296 
	C102.599159,76.673370 105.812874,76.854752 108.841286,76.190865 
	C110.196121,75.893845 112.141342,73.842957 112.072090,72.693199 
	C111.996262,71.434212 109.951408,69.328484 108.682983,69.266624 
	C101.568352,68.919670 94.419022,68.879135 87.306923,69.237625 
	C85.934631,69.306801 84.675140,71.614052 83.363617,72.888863 
	C84.604301,74.042213 85.719238,75.974037 87.109932,76.198654 
	C90.841858,76.801437 94.691750,76.673782 99.460922,76.836296 
M120.662872,55.228943 
	C119.363701,58.468334 117.694084,61.622707 116.922806,64.983253 
	C116.541405,66.645050 117.815697,68.686844 118.340866,70.556702 
	C119.844643,69.487663 121.929855,68.740753 122.736183,67.285316 
	C124.660492,63.811890 126.302765,60.097820 127.411339,56.292286 
	C127.970070,54.374271 127.119171,52.045628 126.905678,49.902657 
	C125.072708,51.151291 123.229218,52.385059 121.419533,53.666561 
	C121.181770,53.834927 121.116989,54.247562 120.662872,55.228943 
M118.922104,93.578339 
	C120.411621,93.738853 122.449501,94.558701 123.251076,93.892036 
	C124.240372,93.069252 124.823128,90.849274 124.478653,89.518539 
	C123.741249,86.669846 122.646416,83.762566 120.994514,81.363701 
	C120.133141,80.112831 117.778938,79.889946 116.099022,79.202744 
	C115.526848,80.806221 114.174927,82.619972 114.539253,83.970886 
	C115.387596,87.116669 117.062378,90.039574 118.922104,93.578339 
M69.383789,88.147873 
	C69.823723,90.221794 70.263657,92.295723 70.703583,94.369644 
	C72.046127,94.072075 74.185226,94.189384 74.593628,93.405266 
	C76.382225,89.971222 77.866432,86.336227 78.997765,82.632599 
	C79.274803,81.725647 78.042534,79.621498 77.068848,79.268486 
	C76.022079,78.888985 73.898926,79.513725 73.241325,80.421623 
	C71.725830,82.513947 70.813683,85.043289 69.383789,88.147873 
M83.715866,50.037678 
	C83.755569,48.092987 83.795280,46.148293 83.834984,44.203602 
	C81.855675,44.529171 79.532768,44.319115 77.982567,45.313587 
	C75.968117,46.605877 74.254623,48.672554 73.029579,50.767323 
	C72.371506,51.892593 72.420647,54.376396 73.216858,55.150349 
	C74.070473,55.980103 76.528954,56.139317 77.658478,55.492874 
	C79.763039,54.288403 81.412155,52.288143 83.715866,50.037678 
M60.474289,61.956703 
	C62.465328,60.658493 64.456367,59.360279 66.447411,58.062065 
	C64.644142,56.730415 62.860119,54.368427 61.032604,54.334286 
	C58.867191,54.293831 55.291183,55.817406 54.765778,57.448719 
	C53.698391,60.762806 56.939301,61.563084 60.474289,61.956703 
M76.594353,62.559746 
	C74.841080,62.843678 72.765457,62.675674 71.469170,63.600288 
	C70.811104,64.069672 71.045387,66.833092 71.777603,67.987953 
	C73.229012,70.277145 75.575943,72.311111 78.319298,70.026703 
	C81.397301,67.463608 79.401291,65.081917 76.594353,62.559746 
M76.392723,38.908863 
	C70.774696,37.899929 67.323410,42.251137 68.325233,48.573372 
	C71.036522,45.662987 73.922630,42.564941 76.392723,38.908863 
z"/>
<path fill="#EEEEEE" opacity="1.000000" stroke="none" 
	d="
M111.016357,146.313980 
	C110.265686,144.622421 109.516586,143.366165 108.767494,142.109894 
	C107.840492,143.461441 106.424133,144.707108 106.103386,146.189804 
	C105.644470,148.311264 105.986488,150.605972 105.986488,152.826706 
	C105.234268,152.875412 104.482048,152.924118 103.729820,152.972839 
	C103.464867,148.955292 103.199905,144.937744 102.872353,139.971161 
	C108.092545,139.971161 112.765121,139.911255 117.433548,140.023773 
	C118.323357,140.045227 119.399773,140.542145 120.040237,141.174194 
	C122.086716,143.193741 121.916954,150.125641 118.942825,154.152039 
	C118.942825,151.082809 119.260796,149.162247 118.855881,147.408600 
	C118.427322,145.552521 117.310959,143.855255 116.495018,142.088623 
	C115.618492,143.796249 114.470329,145.424408 113.940918,147.233612 
	C113.398438,149.087463 113.461609,151.118576 113.259705,153.072098 
	C112.684006,153.063217 112.108307,153.054321 111.532608,153.045441 
	C111.361046,150.946716 111.189491,148.847992 111.016357,146.313980 
z"/>
<path fill="#ECECEC" opacity="1.000000" stroke="none" 
	d="
M72.011246,141.210144 
	C72.120667,139.195938 72.229996,137.647629 72.339325,136.099335 
	C72.885559,136.029953 73.431793,135.960571 73.978020,135.891205 
	C74.413506,137.985123 74.848991,140.079056 75.369560,142.582092 
	C77.162460,142.582092 79.226051,142.582092 81.643341,142.582092 
	C81.884766,140.533249 82.142426,138.346619 82.418953,135.999878 
	C85.643440,138.096603 85.916763,149.829971 82.441498,153.603256 
	C82.181587,150.512329 81.973366,148.036179 81.745667,145.328247 
	C79.525177,145.328247 77.464668,145.328247 75.327118,145.328247 
	C74.924934,148.033035 74.549736,150.556351 74.174538,153.079681 
	C73.453407,153.044601 72.732285,153.009521 72.011154,152.974442 
	C72.011154,149.208313 72.011154,145.442184 72.011246,141.210144 
z"/>
<path fill="#EFEFEF" opacity="1.000000" stroke="none" 
	d="
M134.490967,150.634613 
	C132.816849,154.556824 129.552872,153.447433 127.162071,152.237076 
	C123.958832,150.615387 123.093735,147.067734 124.849571,144.094849 
	C125.958023,142.218079 128.607895,140.409454 130.746994,140.167557 
	C134.617813,139.729828 135.297043,143.016434 135.825485,146.796555 
	C132.770081,146.951904 130.054947,147.089951 127.091957,147.240616 
	C127.991508,152.163254 131.200317,151.046082 134.490967,150.634613 
z"/>
<path fill="#EEEEEE" opacity="1.000000" stroke="none" 
	d="
M88.730598,143.854141 
	C90.716576,139.334824 94.262466,138.978119 97.569366,140.619736 
	C101.090782,142.367859 100.971748,146.084290 99.902176,149.392349 
	C98.774467,152.880249 95.725342,153.698837 92.640434,152.885345 
	C88.162880,151.704666 87.665619,148.181000 88.730598,143.854141 
M91.282471,144.119171 
	C91.180290,144.767609 90.809677,145.528366 91.025352,146.043808 
	C91.723846,147.713089 92.457634,149.448044 93.612213,150.781647 
	C93.858444,151.066040 96.890480,149.893784 96.987755,149.170517 
	C97.265076,147.108459 96.691109,144.931915 96.452095,142.800415 
	C94.887215,143.020340 93.322342,143.240265 91.282471,144.119171 
z"/>
<path fill="#6E6B62" opacity="1.000000" stroke="none" 
	d="
M98.977859,76.836258 
	C94.691750,76.673782 90.841858,76.801437 87.109932,76.198654 
	C85.719238,75.974037 84.604301,74.042213 83.363617,72.888863 
	C84.675140,71.614052 85.934631,69.306801 87.306923,69.237625 
	C94.419022,68.879135 101.568352,68.919670 108.682983,69.266624 
	C109.951408,69.328484 111.996262,71.434212 112.072090,72.693199 
	C112.141342,73.842957 110.196121,75.893845 108.841286,76.190865 
	C105.812874,76.854752 102.599159,76.673370 98.977859,76.836258 
z"/>
<path fill="#706C61" opacity="1.000000" stroke="none" 
	d="
M120.817490,54.888004 
	C121.116989,54.247562 121.181770,53.834927 121.419533,53.666561 
	C123.229218,52.385059 125.072708,51.151291 126.905678,49.902657 
	C127.119171,52.045628 127.970070,54.374271 127.411339,56.292286 
	C126.302765,60.097820 124.660492,63.811890 122.736183,67.285316 
	C121.929855,68.740753 119.844643,69.487663 118.340866,70.556702 
	C117.815697,68.686844 116.541405,66.645050 116.922806,64.983253 
	C117.694084,61.622707 119.363701,58.468334 120.817490,54.888004 
z"/>
<path fill="#6F6C61" opacity="1.000000" stroke="none" 
	d="
M118.662216,93.315559 
	C117.062378,90.039574 115.387596,87.116669 114.539253,83.970886 
	C114.174927,82.619972 115.526848,80.806221 116.099022,79.202744 
	C117.778938,79.889946 120.133141,80.112831 120.994514,81.363701 
	C122.646416,83.762566 123.741249,86.669846 124.478653,89.518539 
	C124.823128,90.849274 124.240372,93.069252 123.251076,93.892036 
	C122.449501,94.558701 120.411621,93.738853 118.662216,93.315559 
z"/>
<path fill="#6D6B63" opacity="1.000000" stroke="none" 
	d="
M69.520264,87.771591 
	C70.813683,85.043289 71.725830,82.513947 73.241325,80.421623 
	C73.898926,79.513725 76.022079,78.888985 77.068848,79.268486 
	C78.042534,79.621498 79.274803,81.725647 78.997765,82.632599 
	C77.866432,86.336227 76.382225,89.971222 74.593628,93.405266 
	C74.185226,94.189384 72.046127,94.072075 70.703583,94.369644 
	C70.263657,92.295723 69.823723,90.221794 69.520264,87.771591 
z"/>
<path fill="#706C61" opacity="1.000000" stroke="none" 
	d="
M83.483353,50.328384 
	C81.412155,52.288143 79.763039,54.288403 77.658478,55.492874 
	C76.528954,56.139317 74.070473,55.980103 73.216858,55.150349 
	C72.420647,54.376396 72.371506,51.892593 73.029579,50.767323 
	C74.254623,48.672554 75.968117,46.605877 77.982567,45.313587 
	C79.532768,44.319115 81.855675,44.529171 83.834984,44.203602 
	C83.795280,46.148293 83.755569,48.092987 83.483353,50.328384 
z"/>
<path fill="#726D60" opacity="1.000000" stroke="none" 
	d="
M60.083607,61.943676 
	C56.939301,61.563084 53.698391,60.762806 54.765778,57.448719 
	C55.291183,55.817406 58.867191,54.293831 61.032604,54.334286 
	C62.860119,54.368427 64.644142,56.730415 66.447411,58.062065 
	C64.456367,59.360279 62.465328,60.658493 60.083607,61.943676 
z"/>
<path fill="#706C61" opacity="1.000000" stroke="none" 
	d="
M76.912933,62.783379 
	C79.401291,65.081917 81.397301,67.463608 78.319298,70.026703 
	C75.575943,72.311111 73.229012,70.277145 71.777603,67.987953 
	C71.045387,66.833092 70.811104,64.069672 71.469170,63.600288 
	C72.765457,62.675674 74.841080,62.843678 76.912933,62.783379 
z"/>
<path fill="#7C7359" opacity="1.000000" stroke="none" 
	d="
M76.600739,39.187878 
	C73.922630,42.564941 71.036522,45.662987 68.325233,48.573372 
	C67.323410,42.251137 70.774696,37.899929 76.600739,39.187878 
z"/>
<path fill="#6C6C6C" opacity="1.000000" stroke="none" 
	d="
M91.519966,143.789673 
	C93.322342,143.240265 94.887215,143.020340 96.452095,142.800415 
	C96.691109,144.931915 97.265076,147.108459 96.987755,149.170517 
	C96.890480,149.893784 93.858444,151.066040 93.612213,150.781647 
	C92.457634,149.448044 91.723846,147.713089 91.025352,146.043808 
	C90.809677,145.528366 91.180290,144.767609 91.519966,143.789673 
z"/>
</svg>