<svg version="1.1" id="Layer_1" xmlns="http://www.w3.org/2000/svg" xmlns:xlink="http://www.w3.org/1999/xlink" x="0px" y="0px"
	 width="100%" viewBox="0 0 203 192" enable-background="new 0 0 203 192" xml:space="preserve">
<path fill="#2F528F" opacity="1.000000" stroke="none" 
	d="
M1.000000,90.000000 
	C1.000000,60.000008 1.000000,30.500013 1.000000,1.000010 
	C67.333313,1.000000 133.666687,1.033720 199.999756,0.903410 
	C203.424286,0.896682 204.104294,1.575176 204.096848,5.000140 
	C203.963562,66.333176 203.963608,127.666649 204.096848,188.999680 
	C204.104294,192.424255 203.424866,193.103561 199.999924,193.096664 
	C135.000214,192.965576 70.000084,192.965591 5.000357,193.096619 
	C1.576002,193.103531 0.883262,192.426941 0.900610,188.999664 
	C1.066804,156.167114 1.000000,123.333389 1.000000,90.000000 
z"/>
<path fill="#676767" opacity="1.000000" stroke="none" 
	d="
M144.000000,2.000997 
	C161.659363,2.002140 178.819977,2.116163 195.977264,1.928079 
	C200.481430,1.878703 202.082031,3.310574 202.072845,7.930842 
	C201.955505,66.905525 201.949295,125.880615 202.081497,184.855225 
	C202.092438,189.735962 200.378479,191.083710 195.692078,191.074921 
	C133.218887,190.957672 70.745300,190.956482 8.272105,191.076492 
	C3.543416,191.085587 1.909071,189.657349 1.919718,184.819397 
	C2.049136,126.011360 2.058844,67.202797 1.906096,8.394877 
	C1.892753,3.257928 3.628554,1.896228 8.557844,1.912903 
	C53.538147,2.065063 98.519180,2.001530 144.000000,2.000997 
z"/>
<path fill="#F0F0F0" opacity="1.000000" stroke="none" 
	d="
M115.984879,16.990635 
	C117.215607,15.839297 118.193443,14.935682 119.173080,14.034016 
	C124.607399,9.032152 124.254196,9.179352 127.072906,15.953289 
	C128.702148,19.868677 131.654770,23.242493 134.073593,26.818224 
	C138.334869,33.117607 135.983704,40.279957 128.552750,41.662037 
	C123.379486,42.624207 122.835693,44.967373 123.937981,49.287106 
	C126.351562,58.745605 125.675171,67.655403 121.514771,76.919449 
	C119.184784,82.107674 117.197960,89.263245 123.456535,94.544373 
	C124.751335,95.636948 125.128334,97.349037 124.362022,99.129303 
	C122.898933,102.528267 119.915199,102.041611 117.109894,102.087914 
	C114.413765,102.132423 111.680923,101.568497 111.309158,98.574821 
	C110.647552,93.247292 110.734978,87.851028 112.079948,82.490936 
	C113.775368,86.462379 113.104416,90.639732 113.301262,94.718933 
	C113.519005,99.231110 116.127327,101.156418 120.142227,99.669205 
	C121.075737,99.323402 122.000504,98.827744 122.037521,97.630592 
	C122.065842,96.714294 121.619530,95.906494 120.737801,95.739731 
	C117.471756,95.122040 117.917702,92.684731 117.897682,90.366463 
	C117.839043,83.579582 117.883873,77.089119 121.312386,70.612915 
	C124.660713,64.288177 123.387375,56.984631 121.772942,50.082191 
	C120.087807,42.877460 120.794167,41.652020 127.934395,39.369778 
	C133.782135,37.500652 135.362198,32.960175 131.923737,27.863119 
	C130.342651,25.519379 128.810013,23.136587 127.108971,20.881979 
	C125.496513,18.744789 124.228096,16.483355 123.604126,12.983326 
	C118.215202,18.227531 113.235123,23.055334 108.289162,27.917835 
	C107.831932,28.367342 107.299133,29.035460 107.294899,29.605742 
	C107.235413,37.603226 101.275513,41.441708 95.970253,45.681416 
	C83.943253,55.292812 79.797516,67.969994 81.181709,82.897820 
	C81.324318,84.435837 82.394951,86.113739 80.860611,87.611832 
	C79.462341,87.625374 79.310440,86.500725 79.203896,85.618866 
	C77.278908,69.685539 80.251617,55.443779 93.432938,44.757973 
	C95.629715,42.977089 97.795845,41.156223 99.928383,39.299007 
	C101.435410,37.986553 103.508286,36.613205 103.599289,34.708500 
	C104.003838,26.240753 110.610077,22.296795 115.984879,16.990635 
z"/>
<path fill="#EFEFEF" opacity="1.000000" stroke="none" 
	d="
M89.551041,102.101761 
	C88.781723,102.048088 88.330246,102.140877 88.137428,101.959190 
	C80.522575,94.783737 71.031250,89.121101 67.930931,78.206825 
	C66.145905,71.922844 67.955147,65.923676 71.049507,60.468773 
	C75.911293,51.898151 78.906532,43.455593 71.923996,34.549995 
	C71.741814,34.317646 72.080170,33.677177 72.255684,32.850773 
	C76.072525,35.076843 77.390732,38.526524 78.079895,42.288887 
	C79.221764,48.522690 77.159515,54.060627 74.304695,59.479069 
	C66.811317,73.701492 68.531296,81.948402 80.939056,92.130127 
	C81.581940,92.657669 82.504143,93.030357 82.851601,93.704384 
	C87.539322,102.797791 95.999016,99.170845 103.182571,99.765488 
	C104.577721,99.880966 105.985229,99.391296 106.038811,97.689125 
	C106.094872,95.907928 104.603264,95.778435 103.255287,95.518745 
	C100.768585,95.039711 96.982147,96.881737 96.067154,94.283707 
	C95.314247,92.145866 99.381393,91.202652 101.025368,89.366493 
	C107.189880,82.481346 106.629463,73.622635 99.276482,65.638840 
	C102.239693,65.272629 104.403282,66.246635 105.851242,69.520767 
	C109.608582,78.016876 107.829132,85.692963 101.319237,92.746597 
	C102.539345,92.875244 103.313843,92.923065 104.076897,93.043427 
	C106.862320,93.482796 108.921867,94.935814 108.699059,97.910057 
	C108.480232,100.831192 106.367538,102.121536 103.472649,102.114708 
	C98.978294,102.104126 94.483894,102.117172 89.551041,102.101761 
z"/>
<path fill="#F0F0F0" opacity="1.000000" stroke="none" 
	d="
M86.542007,150.898590 
	C81.431145,147.623322 80.201668,144.040054 81.964043,138.985138 
	C83.239357,135.327194 85.806320,133.736816 89.581978,133.985992 
	C91.658920,134.123062 93.472084,134.692856 93.927956,137.773346 
	C90.641342,136.747513 87.178436,134.352859 84.989944,138.829300 
	C83.644173,141.581985 83.604233,144.397690 85.349808,146.887131 
	C87.732162,150.284729 90.767311,148.631958 94.463257,146.494293 
	C92.823441,151.443726 89.811806,151.072800 86.542007,150.898590 
z"/>
<path fill="#EFEFEF" opacity="1.000000" stroke="none" 
	d="
M97.265114,144.322998 
	C97.882568,143.931839 98.308144,143.879501 98.465202,143.646301 
	C99.525536,142.071945 103.483391,144.552795 102.669212,141.225159 
	C102.126350,139.006393 99.418297,140.074692 97.558342,140.574142 
	C97.333817,140.634430 97.006989,140.313736 96.566566,140.086594 
	C98.095398,137.170074 100.792862,137.724152 103.031456,138.199966 
	C105.486160,138.721710 106.084183,140.934738 105.976776,143.284103 
	C105.931534,144.273865 106.084351,145.283386 105.947449,146.255814 
	C105.731888,147.786972 106.790497,150.454971 104.990479,150.598801 
	C102.403297,150.805557 99.328934,152.324951 96.984909,149.936478 
	C95.399826,148.321304 95.517502,146.375961 97.265114,144.322998 
z"/>
<path fill="#F0F0F0" opacity="1.000000" stroke="none" 
	d="
M123.651428,147.834259 
	C123.544693,146.125168 122.316826,145.777908 121.299667,145.325241 
	C119.544388,144.544006 117.959152,143.679169 118.024918,141.449951 
	C118.074593,139.766525 119.041801,138.553467 120.611603,138.183304 
	C122.523361,137.732513 124.538124,137.550674 125.673241,139.662201 
	C125.084259,141.155807 124.357132,140.367844 123.626350,140.209442 
	C122.527519,139.971268 121.162796,139.552307 120.842819,141.241608 
	C120.609962,142.470932 121.680557,142.849411 122.596664,143.273865 
	C124.738640,144.266388 127.041779,145.194855 126.080040,148.321365 
	C125.067810,151.612061 121.103149,151.937500 117.668686,148.792435 
	C119.592262,147.567108 121.926376,150.408707 123.651428,147.834259 
z"/>
<path fill="#ECECEC" opacity="1.000000" stroke="none" 
	d="
M112.873901,145.791153 
	C112.272728,148.683990 114.436653,148.911636 116.324226,149.802155 
	C114.375237,151.443176 112.774384,151.400238 111.213371,150.189209 
	C109.864990,149.143143 109.141060,137.735764 110.030930,136.213928 
	C111.062317,134.450058 112.331879,134.658875 112.655624,136.226196 
	C113.078293,138.272400 115.044945,137.618652 116.403404,139.118835 
	C112.251900,139.789795 112.839066,142.698029 112.873901,145.791153 
z"/>
<path fill="#E5E5E5" opacity="1.000000" stroke="none" 
	d="
M124.594452,24.504229 
	C126.166801,23.613604 127.151581,23.904572 127.237595,25.476210 
	C127.262688,25.934614 126.565987,26.788454 126.114708,26.851727 
	C124.631905,27.059635 124.012375,26.249439 124.594452,24.504229 
z"/>
<path fill="#6D6D6D" opacity="1.000000" stroke="none" 
	d="
M98.731110,147.105286 
	C99.875900,145.175842 101.237015,144.348785 102.876701,145.745346 
	C103.193977,146.015564 102.982048,147.515976 102.531769,147.963745 
	C101.209686,149.278427 99.711578,149.825302 98.731110,147.105286 
z"/>
</svg>