<svg version="1.1" id="Layer_1" xmlns="http://www.w3.org/2000/svg" xmlns:xlink="http://www.w3.org/1999/xlink" x="0px" y="0px"
	 width="100%" viewBox="0 0 202 192" enable-background="new 0 0 202 192" xml:space="preserve">
<path fill="#686868" opacity="1.000000" stroke="none" 
	d="
M203.000000,3.000000 
	C203.000000,65.687561 203.000000,128.375122 202.531342,191.531052 
	C138.080261,191.999146 74.097847,192.001068 10.115427,191.995560 
	C3.021208,191.994949 3.004539,191.975281 3.003945,184.757294 
	C2.999171,126.773209 3.000016,68.789124 3.002509,10.805037 
	C3.002844,3.009029 3.011534,3.002426 11.052677,3.002144 
	C75.035118,2.999903 139.017563,3.000366 203.000000,3.000000 
M53.667454,141.461243 
	C54.188225,144.973373 54.709000,148.485489 55.229771,151.997604 
	C55.784592,151.951309 56.339413,151.904999 56.894234,151.858704 
	C56.894234,148.789032 57.419571,145.583786 56.676945,142.705734 
	C56.294380,141.223114 53.654961,140.322815 51.247646,139.200974 
	C47.238651,139.200974 43.229652,139.200974 39.503307,139.200974 
	C39.503307,143.870209 39.503307,147.864807 39.503307,151.859406 
	C39.964211,151.944397 40.425114,152.029388 40.886017,152.114380 
	C41.208817,150.622055 41.595303,149.140091 41.839863,147.635071 
	C42.230408,145.231644 40.661629,141.756516 44.562634,141.406540 
	C45.160564,141.352875 46.251068,145.572800 46.908451,147.874847 
	C47.276688,149.164368 47.223274,150.574280 47.359844,151.929947 
	C47.839725,151.958923 48.319607,151.987900 48.799488,152.016876 
	C49.025799,150.135010 49.401646,148.256378 49.442398,146.370499 
	C49.499519,143.726685 49.629673,141.286133 53.667454,141.461243 
M131.285217,139.927063 
	C130.586655,139.799774 129.888107,139.672501 129.189545,139.545227 
	C129.189545,143.648224 129.189545,147.751221 129.189545,151.854218 
	C129.735352,151.871170 130.281174,151.888123 130.826981,151.905090 
	C131.220184,148.609161 131.613373,145.313248 132.725052,141.722763 
	C136.725540,139.913635 136.223557,143.085434 136.484344,145.214676 
	C136.758942,147.456680 136.820374,149.724823 136.974945,151.981537 
	C137.668594,151.918488 138.362228,151.855423 139.055878,151.792374 
	C139.055878,149.533417 138.686813,147.188782 139.184464,145.045380 
	C139.521240,143.594772 141.077301,142.427261 142.088028,141.133133 
	C142.771027,142.435028 143.793259,143.671417 144.060226,145.053665 
	C144.498062,147.320709 144.445435,149.682465 144.599625,152.004288 
	C145.331955,151.969711 146.064270,151.935135 146.796585,151.900558 
	C146.796585,148.908646 147.024460,145.890976 146.690720,142.936768 
	C146.545837,141.654190 145.262543,139.476181 144.466858,139.462860 
	C140.329803,139.393570 136.183258,139.890945 131.285217,139.927063 
M123.875610,58.978176 
	C121.963837,57.678341 120.115921,55.529785 118.117668,55.379433 
	C116.803062,55.280525 115.271698,58.062557 113.765129,59.629673 
	C96.588554,51.171387 82.360008,52.803036 74.535278,64.298386 
	C69.835793,71.202423 69.235588,80.469894 72.576706,83.496880 
	C73.485184,78.399811 73.597237,72.505905 75.690308,67.428680 
	C78.036629,61.737144 83.311279,58.273293 89.580452,57.095173 
	C99.795929,55.175442 111.571358,59.338257 115.198090,66.637947 
	C116.295967,63.443680 117.204666,60.799824 117.683167,59.407642 
	C123.671501,61.091564 129.094482,62.693996 134.563416,64.120270 
	C137.132309,64.790230 139.877167,64.858475 142.378113,65.691986 
	C144.243744,66.313751 145.845963,67.725914 147.565475,68.786087 
	C146.222855,70.083237 145.095825,71.814308 143.502136,72.606071 
	C134.186325,77.234352 125.920082,84.102951 115.171402,86.152939 
	C117.736641,86.841316 120.291801,86.712151 122.742348,87.158012 
	C124.246681,87.431725 125.590851,88.585701 127.006943,89.344406 
	C125.547607,90.015259 124.115616,91.182587 122.623856,91.264748 
	C117.973526,91.520859 113.299202,91.305702 108.637321,91.411682 
	C107.408760,91.439606 106.191574,91.967712 104.969162,92.266136 
	C105.053032,92.832047 105.136894,93.397949 105.220764,93.963852 
	C110.944794,93.963852 116.687569,94.232391 122.383873,93.834984 
	C124.744896,93.670265 127.811516,92.663170 129.051056,90.949615 
	C129.992157,89.648628 128.550430,86.623970 128.089478,83.895760 
	C133.808258,80.769310 140.466293,77.343475 146.858673,73.478310 
	C148.383469,72.556335 149.990341,70.051491 149.802628,68.485245 
	C149.603287,66.822105 147.480042,65.192055 145.875626,63.969082 
	C144.917496,63.238735 143.345169,63.303528 142.043808,63.035858 
	C136.197708,61.833424 130.349762,60.639923 123.875610,58.978176 
M57.911198,72.372658 
	C59.695686,75.902168 60.978073,79.821426 63.358597,82.888283 
	C70.564407,92.171600 87.813057,97.244942 98.829338,93.791435 
	C102.250755,92.718857 103.585838,88.530998 101.002510,86.337807 
	C99.704292,85.235657 97.781868,84.868767 96.113739,84.157440 
	C96.025009,76.617401 94.836761,74.732910 88.315948,74.371635 
	C94.215530,77.873711 95.618317,81.714584 90.370422,86.706474 
	C93.128563,86.918129 94.628250,86.787910 95.957634,87.203056 
	C97.333786,87.632797 98.544724,88.591606 99.827919,89.319008 
	C98.574364,90.079193 97.339302,91.450523 96.063896,91.489136 
	C91.586784,91.624649 87.061584,91.602028 82.616486,91.096107 
	C69.366989,89.588112 59.450657,78.518288 59.302391,65.400436 
	C59.159863,52.789505 69.121529,41.709446 82.192909,39.852528 
	C83.566162,39.657440 84.881119,39.051991 86.223122,38.636929 
	C71.466949,35.206219 53.138515,51.749321 57.911198,72.372658 
M105.566299,149.816208 
	C104.031143,145.610962 102.483688,141.410156 100.965462,137.198807 
	C100.053360,134.668732 98.002899,133.717728 96.795036,136.181137 
	C94.389122,141.087952 92.826736,146.408371 90.915886,151.557922 
	C91.449951,151.809402 91.984009,152.060883 92.518074,152.312347 
	C93.509132,150.699203 94.500183,149.086060 95.554428,147.370056 
	C100.547012,146.871368 100.485023,146.915329 103.117783,150.627090 
	C103.408981,151.037643 104.908348,150.591232 105.566299,149.816208 
M69.949448,142.068909 
	C67.126678,137.992798 63.873287,137.728317 61.132160,141.166946 
	C63.123207,141.474213 65.236366,141.800339 66.581024,142.007843 
	C64.057159,144.658417 60.156063,147.071518 60.450176,148.749176 
	C61.506992,154.777344 66.556656,150.626938 70.017967,151.827057 
	C70.017967,148.535034 70.017967,145.735123 69.949448,142.068909 
M159.944931,150.227173 
	C159.955566,148.246216 160.348145,146.166656 159.869385,144.312042 
	C159.390701,142.457733 158.398926,139.867569 156.983261,139.339584 
	C155.145233,138.654068 152.665985,139.687775 150.462753,139.981445 
	C150.548935,140.294235 150.635132,140.607025 150.721329,140.919815 
	C152.849289,141.341476 154.977249,141.763123 157.105209,142.184784 
	C156.998108,142.707382 156.891006,143.229996 156.783905,143.752594 
	C155.825256,143.879059 154.547394,143.662262 153.970184,144.198975 
	C152.478912,145.585648 151.296997,147.305038 149.991531,148.891541 
	C151.733734,149.923065 153.370361,151.334534 155.253769,151.857849 
	C156.599014,152.231644 158.275497,151.413284 159.944931,150.227173 
M35.175228,136.458374 
	C32.105076,133.782333 28.794081,134.054108 26.699337,137.149170 
	C24.537951,140.342697 26.749002,142.685349 29.846176,144.104172 
	C30.447042,144.379440 31.252907,144.549133 31.570915,145.028458 
	C32.223606,146.012238 33.272869,147.494629 32.940090,148.179871 
	C32.513161,149.058975 30.924187,149.682846 29.767292,149.814667 
	C28.515858,149.957230 27.185408,149.406219 25.889421,149.157730 
	C25.776865,149.813400 25.664307,150.469070 25.551750,151.124741 
	C27.835680,151.387207 30.254475,152.218887 32.358135,151.720474 
	C33.867191,151.362946 35.784431,149.343750 35.995014,147.850830 
	C36.201767,146.385071 34.688175,144.483078 33.555763,143.072632 
	C32.240337,141.434235 30.518190,140.122375 28.972578,138.668793 
	C31.032730,138.167999 33.092880,137.667191 35.175228,136.458374 
M108.124352,149.095291 
	C108.607193,150.116119 109.090034,151.136963 109.572876,152.157791 
	C110.047836,152.022537 110.522804,151.887283 110.997765,151.752029 
	C110.997765,149.975937 110.610085,148.083481 111.099075,146.454147 
	C111.668655,144.556290 113.005211,142.888626 114.008926,141.121063 
	C114.711319,142.867188 115.604805,144.564896 116.062897,146.372925 
	C116.530060,148.216751 116.569260,150.169006 116.795837,152.073807 
	C117.257347,151.985611 117.718864,151.897415 118.180382,151.809219 
	C121.213196,141.121628 118.879791,138.243744 108.118256,139.865570 
	C108.118256,142.605392 108.118256,145.398697 108.124352,149.095291 
M169.807312,149.250443 
	C170.785614,150.181839 171.901199,151.990540 172.713867,151.863388 
	C174.447083,151.592178 176.301483,150.585068 177.522583,149.317291 
	C177.991058,148.830902 177.232422,146.463150 176.382858,145.573380 
	C175.161163,144.293884 173.345383,143.581635 171.783173,142.627274 
	C171.922806,142.253418 172.062439,141.879578 172.202087,141.505737 
	C173.762589,141.505737 175.323105,141.505737 176.883621,141.505737 
	C176.958206,140.999252 177.032791,140.492752 177.107376,139.986267 
	C175.465485,139.683563 173.710068,138.892212 172.219040,139.238678 
	C171.103256,139.497925 169.514389,141.295578 169.601288,142.278717 
	C169.717789,143.596695 171.199265,144.830200 172.186646,146.023911 
	C173.027740,147.040741 173.998871,147.949951 174.912476,148.906784 
	C173.465439,149.029800 172.018402,149.152832 169.807312,149.250443 
M80.002556,136.895386 
	C80.002556,141.896683 80.002556,146.897964 80.002556,152.009705 
	C81.383339,151.828659 81.980560,151.800354 81.983376,151.742874 
	C82.255997,146.190048 82.483452,140.635010 82.713776,135.080109 
	C81.816154,135.380585 80.918541,135.681046 80.002556,136.895386 
M74.000862,145.392456 
	C74.106911,147.547318 74.212967,149.702194 74.374893,152.992157 
	C77.152008,147.930191 76.934708,136.852707 74.000854,133.407547 
	C74.000854,137.604752 74.000854,141.017365 74.000862,145.392456 
M164.001373,137.784149 
	C164.001373,142.480835 164.001373,147.177536 164.001373,151.874222 
	C164.734497,151.830185 165.467636,151.786133 166.200760,151.742081 
	C166.266251,145.885468 167.007858,140.006760 165.766434,134.192871 
	C165.351105,134.182922 164.935791,134.172974 164.520462,134.163025 
	C164.348297,135.057205 164.176117,135.951370 164.001373,137.784149 
M122.618668,145.504974 
	C122.809135,147.647247 122.999603,149.789505 123.190071,151.931778 
	C123.596985,151.867126 124.003899,151.802490 124.410812,151.737854 
	C124.410812,147.557800 124.410812,143.377747 124.410812,139.197708 
	C123.971802,139.167252 123.532784,139.136795 123.093773,139.106354 
	C122.935425,140.926758 122.777077,142.747177 122.618668,145.504974 
z"/>
<path fill="#2F528F" opacity="1.000000" stroke="none" 
	d="
M203.000000,2.500000 
	C139.017563,3.000366 75.035118,2.999903 11.052677,3.002144 
	C3.011534,3.002426 3.002844,3.009029 3.002509,10.805037 
	C3.000016,68.789124 2.999171,126.773209 3.003945,184.757294 
	C3.004539,191.975281 3.021208,191.994949 10.115427,191.995560 
	C74.097847,192.001068 138.080261,191.999146 202.531342,191.999710 
	C201.666672,192.333344 200.333542,192.957321 198.999969,192.958282 
	C133.000015,193.005859 67.000015,193.000000 1.000018,193.000000 
	C1.000012,129.000015 1.000012,65.000031 1.000006,1.000024 
	C66.999977,1.000000 132.999954,0.994127 198.999893,1.041701 
	C200.333496,1.042663 201.666641,1.666666 203.000000,2.500000 
z"/>
<path fill="#EAEAEA" opacity="1.000000" stroke="none" 
	d="
M124.189041,59.210686 
	C130.349762,60.639923 136.197708,61.833424 142.043808,63.035858 
	C143.345169,63.303528 144.917496,63.238735 145.875626,63.969082 
	C147.480042,65.192055 149.603287,66.822105 149.802628,68.485245 
	C149.990341,70.051491 148.383469,72.556335 146.858673,73.478310 
	C140.466293,77.343475 133.808258,80.769310 128.089478,83.895760 
	C128.550430,86.623970 129.992157,89.648628 129.051056,90.949615 
	C127.811516,92.663170 124.744896,93.670265 122.383873,93.834984 
	C116.687569,94.232391 110.944794,93.963852 105.220764,93.963852 
	C105.136894,93.397949 105.053032,92.832047 104.969162,92.266136 
	C106.191574,91.967712 107.408760,91.439606 108.637321,91.411682 
	C113.299202,91.305702 117.973526,91.520859 122.623856,91.264748 
	C124.115616,91.182587 125.547607,90.015259 127.006943,89.344406 
	C125.590851,88.585701 124.246681,87.431725 122.742348,87.158012 
	C120.291801,86.712151 117.736641,86.841316 115.171402,86.152939 
	C125.920082,84.102951 134.186325,77.234352 143.502136,72.606071 
	C145.095825,71.814308 146.222855,70.083237 147.565475,68.786087 
	C145.845963,67.725914 144.243744,66.313751 142.378113,65.691986 
	C139.877167,64.858475 137.132309,64.790230 134.563416,64.120270 
	C129.094482,62.693996 123.671501,61.091564 117.683167,59.407642 
	C117.204666,60.799824 116.295967,63.443680 115.198090,66.637947 
	C111.571358,59.338257 99.795929,55.175442 89.580452,57.095173 
	C83.311279,58.273293 78.036629,61.737144 75.690308,67.428680 
	C73.597237,72.505905 73.485184,78.399811 72.576706,83.496880 
	C69.235588,80.469894 69.835793,71.202423 74.535278,64.298386 
	C82.360008,52.803036 96.588554,51.171387 113.765129,59.629673 
	C115.271698,58.062557 116.803062,55.280525 118.117668,55.379433 
	C120.115921,55.529785 121.963837,57.678341 124.189041,59.210686 
z"/>
<path fill="#EEEEEE" opacity="1.000000" stroke="none" 
	d="
M57.803802,71.967636 
	C53.138515,51.749321 71.466949,35.206219 86.223122,38.636929 
	C84.881119,39.051991 83.566162,39.657440 82.192909,39.852528 
	C69.121529,41.709446 59.159863,52.789505 59.302391,65.400436 
	C59.450657,78.518288 69.366989,89.588112 82.616486,91.096107 
	C87.061584,91.602028 91.586784,91.624649 96.063896,91.489136 
	C97.339302,91.450523 98.574364,90.079193 99.827919,89.319000 
	C98.544724,88.591606 97.333786,87.632797 95.957634,87.203056 
	C94.628250,86.787910 93.128563,86.918129 90.370422,86.706474 
	C95.618317,81.714584 94.215530,77.873711 88.315948,74.371635 
	C94.836761,74.732910 96.025009,76.617401 96.113739,84.157440 
	C97.781868,84.868767 99.704292,85.235657 101.002510,86.337807 
	C103.585838,88.530998 102.250755,92.718857 98.829338,93.791435 
	C87.813057,97.244942 70.564407,92.171600 63.358597,82.888283 
	C60.978073,79.821426 59.695686,75.902168 57.803802,71.967636 
z"/>
<path fill="#EBEBEB" opacity="1.000000" stroke="none" 
	d="
M105.706848,150.179230 
	C104.908348,150.591232 103.408981,151.037643 103.117783,150.627090 
	C100.485023,146.915329 100.547012,146.871368 95.554428,147.370056 
	C94.500183,149.086060 93.509132,150.699203 92.518074,152.312347 
	C91.984009,152.060883 91.449951,151.809402 90.915886,151.557922 
	C92.826736,146.408371 94.389122,141.087952 96.795036,136.181137 
	C98.002899,133.717728 100.053360,134.668732 100.965462,137.198807 
	C102.483688,141.410156 104.031143,145.610962 105.706848,150.179230 
z"/>
<path fill="#F3F3F3" opacity="1.000000" stroke="none" 
	d="
M69.983704,142.502045 
	C70.017967,145.735123 70.017967,148.535034 70.017967,151.827057 
	C66.556656,150.626938 61.506992,154.777344 60.450176,148.749176 
	C60.156063,147.071518 64.057159,144.658417 66.581024,142.007843 
	C65.236366,141.800339 63.123207,141.474213 61.132160,141.166946 
	C63.873287,137.728317 67.126678,137.992798 69.983704,142.502045 
z"/>
<path fill="#EDEDED" opacity="1.000000" stroke="none" 
	d="
M159.874557,150.677032 
	C158.275497,151.413284 156.599014,152.231644 155.253769,151.857849 
	C153.370361,151.334534 151.733734,149.923065 149.991531,148.891541 
	C151.296997,147.305038 152.478912,145.585648 153.970184,144.198975 
	C154.547394,143.662262 155.825256,143.879059 156.783905,143.752594 
	C156.891006,143.229996 156.998108,142.707382 157.105209,142.184784 
	C154.977249,141.763123 152.849289,141.341476 150.721329,140.919815 
	C150.635132,140.607025 150.548935,140.294235 150.462753,139.981445 
	C152.665985,139.687775 155.145233,138.654068 156.983261,139.339584 
	C158.398926,139.867569 159.390701,142.457733 159.869385,144.312042 
	C160.348145,146.166656 159.955566,148.246216 159.874557,150.677032 
z"/>
<path fill="#EFEFEF" opacity="1.000000" stroke="none" 
	d="
M35.164131,136.812378 
	C33.092880,137.667191 31.032730,138.167999 28.972578,138.668793 
	C30.518190,140.122375 32.240337,141.434235 33.555763,143.072632 
	C34.688175,144.483078 36.201767,146.385071 35.995014,147.850830 
	C35.784431,149.343750 33.867191,151.362946 32.358135,151.720474 
	C30.254475,152.218887 27.835680,151.387207 25.551750,151.124741 
	C25.664307,150.469070 25.776865,149.813400 25.889421,149.157730 
	C27.185408,149.406219 28.515858,149.957230 29.767292,149.814667 
	C30.924187,149.682846 32.513161,149.058975 32.940090,148.179871 
	C33.272869,147.494629 32.223606,146.012238 31.570915,145.028458 
	C31.252907,144.549133 30.447042,144.379440 29.846176,144.104172 
	C26.749002,142.685349 24.537951,140.342697 26.699337,137.149170 
	C28.794081,134.054108 32.105076,133.782333 35.164131,136.812378 
z"/>
<path fill="#EFEFEF" opacity="1.000000" stroke="none" 
	d="
M132.040009,140.190994 
	C136.183258,139.890945 140.329803,139.393570 144.466858,139.462860 
	C145.262543,139.476181 146.545837,141.654190 146.690720,142.936768 
	C147.024460,145.890976 146.796585,148.908646 146.796585,151.900558 
	C146.064270,151.935135 145.331955,151.969711 144.599625,152.004288 
	C144.445435,149.682465 144.498062,147.320709 144.060226,145.053665 
	C143.793259,143.671417 142.771027,142.435028 142.088013,141.133133 
	C141.077301,142.427261 139.521240,143.594772 139.184464,145.045380 
	C138.686813,147.188782 139.055878,149.533417 139.055878,151.792374 
	C138.362228,151.855423 137.668594,151.918488 136.974945,151.981537 
	C136.820374,149.724823 136.758942,147.456680 136.484344,145.214676 
	C136.223557,143.085434 136.725540,139.913635 132.355850,141.565414 
	C132.004440,141.002380 132.022232,140.596680 132.040009,140.190994 
z"/>
<path fill="#EFEFEF" opacity="1.000000" stroke="none" 
	d="
M53.024673,140.891815 
	C49.629673,141.286133 49.499519,143.726685 49.442398,146.370499 
	C49.401646,148.256378 49.025799,150.135010 48.799488,152.016876 
	C48.319607,151.987900 47.839725,151.958923 47.359844,151.929947 
	C47.223274,150.574280 47.276688,149.164368 46.908451,147.874847 
	C46.251068,145.572800 45.160564,141.352875 44.562634,141.406540 
	C40.661629,141.756516 42.230408,145.231644 41.839863,147.635071 
	C41.595303,149.140091 41.208817,150.622055 40.886017,152.114380 
	C40.425114,152.029388 39.964211,151.944397 39.503307,151.859406 
	C39.503307,147.864807 39.503307,143.870209 39.503307,139.200974 
	C43.229652,139.200974 47.238651,139.200974 51.761574,139.398743 
	C52.525227,140.028290 52.774952,140.460052 53.024673,140.891815 
z"/>
<path fill="#E9E9E9" opacity="1.000000" stroke="none" 
	d="
M108.121307,148.643646 
	C108.118256,145.398697 108.118256,142.605392 108.118256,139.865570 
	C118.879791,138.243744 121.213196,141.121628 118.180382,151.809219 
	C117.718864,151.897415 117.257347,151.985611 116.795837,152.073807 
	C116.569260,150.169006 116.530060,148.216751 116.062897,146.372925 
	C115.604805,144.564896 114.711319,142.867188 114.008926,141.121063 
	C113.005211,142.888626 111.668655,144.556290 111.099075,146.454147 
	C110.610085,148.083481 110.997765,149.975937 110.997765,151.752029 
	C110.522804,151.887283 110.047836,152.022537 109.572876,152.157791 
	C109.090034,151.136963 108.607193,150.116119 108.121307,148.643646 
z"/>
<path fill="#EDEDED" opacity="1.000000" stroke="none" 
	d="
M170.189331,149.263153 
	C172.018402,149.152832 173.465439,149.029800 174.912476,148.906784 
	C173.998871,147.949951 173.027740,147.040741 172.186646,146.023911 
	C171.199265,144.830200 169.717789,143.596695 169.601288,142.278717 
	C169.514389,141.295578 171.103256,139.497925 172.219040,139.238678 
	C173.710068,138.892212 175.465485,139.683563 177.107376,139.986267 
	C177.032791,140.492752 176.958206,140.999252 176.883621,141.505737 
	C175.323105,141.505737 173.762589,141.505737 172.202087,141.505737 
	C172.062439,141.879578 171.922806,142.253418 171.783173,142.627274 
	C173.345383,143.581635 175.161163,144.293884 176.382858,145.573380 
	C177.232422,146.463150 177.991058,148.830902 177.522583,149.317291 
	C176.301483,150.585068 174.447083,151.592178 172.713867,151.863388 
	C171.901199,151.990540 170.785614,150.181839 170.189331,149.263153 
z"/>
<path fill="#E8E8E8" opacity="1.000000" stroke="none" 
	d="
M80.011734,136.438446 
	C80.918541,135.681046 81.816154,135.380585 82.713776,135.080109 
	C82.483452,140.635010 82.255997,146.190048 81.983376,151.742874 
	C81.980560,151.800354 81.383339,151.828659 80.002556,152.009705 
	C80.002556,146.897964 80.002556,141.896683 80.011734,136.438446 
z"/>
<path fill="#F7F7F7" opacity="1.000000" stroke="none" 
	d="
M53.346062,141.176529 
	C52.774952,140.460052 52.525227,140.028290 52.155415,139.377960 
	C53.654961,140.322815 56.294380,141.223114 56.676945,142.705734 
	C57.419571,145.583786 56.894234,148.789032 56.894234,151.858704 
	C56.339413,151.904999 55.784592,151.951309 55.229771,151.997604 
	C54.709000,148.485489 54.188225,144.973373 53.346062,141.176529 
z"/>
<path fill="#FFFFFF" opacity="1.000000" stroke="none" 
	d="
M74.000854,144.911224 
	C74.000854,141.017365 74.000854,137.604752 74.000854,133.407547 
	C76.934708,136.852707 77.152008,147.930191 74.374893,152.992157 
	C74.212967,149.702194 74.106911,147.547318 74.000854,144.911224 
z"/>
<path fill="#FFFFFF" opacity="1.000000" stroke="none" 
	d="
M164.002655,137.314850 
	C164.176117,135.951370 164.348297,135.057205 164.520462,134.163025 
	C164.935791,134.172974 165.351105,134.182922 165.766434,134.192871 
	C167.007858,140.006760 166.266251,145.885468 166.200760,151.742081 
	C165.467636,151.786133 164.734497,151.830185 164.001373,151.874222 
	C164.001373,147.177536 164.001373,142.480835 164.002655,137.314850 
z"/>
<path fill="#FDFDFD" opacity="1.000000" stroke="none" 
	d="
M131.662628,140.059021 
	C132.022232,140.596680 132.004440,141.002380 131.996613,141.712708 
	C131.613373,145.313248 131.220184,148.609161 130.826981,151.905090 
	C130.281174,151.888123 129.735352,151.871170 129.189545,151.854218 
	C129.189545,147.751221 129.189545,143.648224 129.189545,139.545227 
	C129.888107,139.672501 130.586655,139.799774 131.662628,140.059021 
z"/>
<path fill="#FFFFFF" opacity="1.000000" stroke="none" 
	d="
M122.618698,145.036285 
	C122.777077,142.747177 122.935425,140.926758 123.093773,139.106354 
	C123.532784,139.136795 123.971802,139.167252 124.410812,139.197708 
	C124.410812,143.377747 124.410812,147.557800 124.410812,151.737854 
	C124.003899,151.802490 123.596985,151.867126 123.190071,151.931778 
	C122.999603,149.789505 122.809135,147.647247 122.618698,145.036285 
z"/>
</svg>