<svg version="1.1" id="Layer_1" xmlns="http://www.w3.org/2000/svg" xmlns:xlink="http://www.w3.org/1999/xlink" x="0px" y="0px"
	 width="100%" viewBox="0 0 202 191" enable-background="new 0 0 202 191" xml:space="preserve">
<path fill="#676767" opacity="1.000000" stroke="none" 
	d="
M1.448939,191.219940 
	C1.000000,128.305298 1.000000,65.610603 1.000000,2.457953 
	C2.556817,1.094677 4.263976,1.521539 5.896582,1.520917 
	C69.229317,1.496765 132.562057,1.499663 195.894806,1.501663 
	C201.960526,1.501855 201.993011,1.509798 201.994019,7.501832 
	C202.003906,66.834618 202.003952,126.167397 201.993988,185.500183 
	C201.992996,191.490265 201.960419,191.501328 195.892944,191.497864 
	C131.227936,191.460846 66.562866,191.579071 1.448939,191.219940 
z"/>
<path fill="#2F528F" opacity="1.000000" stroke="none" 
	d="
M1.000000,191.500000 
	C64.970818,190.999771 128.941635,191.000610 192.912445,190.997971 
	C200.985703,190.997635 200.997040,190.989090 200.997482,183.179337 
	C201.000732,125.205780 201.001724,67.232224 200.995728,9.258671 
	C200.994980,2.029408 200.974091,2.005513 193.849777,2.004773 
	C129.878952,1.998123 65.908134,2.000531 1.468657,2.000139 
	C0.658142,0.403881 1.892996,1.021673 2.500007,1.021463 
	C68.499977,0.998609 134.499969,1.013533 200.499878,0.939572 
	C202.646027,0.937167 203.063141,1.353568 203.060547,3.500012 
	C202.985611,65.499901 202.961929,127.499985 203.098877,189.499664 
	C203.106705,193.048187 201.119705,191.974243 199.500107,191.974976 
	C133.333420,192.004242 67.166710,192.000000 1.000000,191.500000 
z"/>
<path fill="#EAEAEA" opacity="1.000000" stroke="none" 
	d="
M109.888168,46.198547 
	C113.049896,41.138954 118.914978,38.892406 120.756447,32.647797 
	C121.813354,29.063751 126.455147,29.603710 127.630447,33.743809 
	C129.264328,39.499294 135.874603,41.596073 136.796448,47.583572 
	C136.850342,47.933502 137.505447,48.365311 137.942886,48.454559 
	C142.019241,49.286243 144.132385,51.812485 143.672760,55.884171 
	C143.129837,60.693512 140.514099,64.209694 135.874680,66.002472 
	C133.161026,67.051086 130.306488,66.798210 127.481918,66.891899 
	C121.180138,67.100922 117.780182,70.158051 117.850998,76.411018 
	C117.906296,81.294167 116.031227,86.618263 120.600441,90.889420 
	C121.882393,92.087753 121.123978,94.478294 119.778145,95.919907 
	C118.284546,97.519814 116.333824,97.712639 114.250343,97.188904 
	C113.314110,96.953552 113.252907,95.592934 111.478455,96.164467 
	C103.062973,98.875053 99.525375,96.765465 99.407799,88.269867 
	C99.338608,83.270279 97.427055,82.535820 93.293869,82.809174 
	C89.148026,83.083351 84.968925,82.936882 80.806984,82.850342 
	C78.780258,82.808189 77.172523,83.423065 76.201675,85.194756 
	C75.201958,87.019112 76.079994,88.256210 77.629021,89.363304 
	C79.514191,90.710625 78.923431,92.489937 78.083740,94.574295 
	C78.227531,95.088127 78.427544,95.237640 78.272476,95.506439 
	C71.932350,99.434868 67.650276,98.072914 65.929153,91.526955 
	C64.129486,84.682266 65.239281,77.645035 65.242920,70.706573 
	C65.244972,66.780457 64.584503,63.641201 61.377125,61.131180 
	C58.814198,59.125488 57.111027,56.422096 59.820503,53.506886 
	C62.814461,50.285595 65.738533,52.214119 67.827866,54.806881 
	C70.524315,58.153053 73.779961,59.259197 77.874939,58.770462 
	C79.348816,58.594559 80.886177,58.565125 82.352180,58.770859 
	C92.226181,60.156555 100.307213,57.225513 106.584274,48.902145 
	C107.345871,48.884960 107.772072,49.080524 108.415771,49.594994 
	C110.691833,51.803146 113.011398,53.551579 114.644417,55.810238 
	C118.983246,61.811386 124.959991,62.310066 131.496078,61.422417 
	C134.116608,61.066532 136.370483,60.128498 137.249390,57.401337 
	C138.044189,54.935139 136.274033,53.805416 134.515121,52.735661 
	C133.770966,52.283070 133.252533,51.552338 133.108719,50.751846 
	C132.565094,47.726471 131.378555,45.769207 127.792671,45.575035 
	C125.656075,45.459335 125.163208,42.856998 123.861412,40.695335 
	C121.268341,46.581226 116.104225,47.100193 110.631256,47.381927 
	C110.203522,46.966911 110.071976,46.762901 109.888168,46.198547 
z"/>
<path fill="#F6F6F6" opacity="1.000000" stroke="none" 
	d="
M75.564758,141.111893 
	C76.500252,138.383865 73.234749,134.273911 78.631927,133.951324 
	C84.842529,133.580124 88.270973,135.716995 88.933907,140.617706 
	C89.653404,145.936600 87.162170,150.115494 82.787849,150.927353 
	C76.003174,152.186539 75.564926,151.619110 75.564758,141.111893 
z"/>
<path fill="#F0F0F0" opacity="1.000000" stroke="none" 
	d="
M105.740845,151.049774 
	C105.990074,148.076416 106.129265,145.478256 106.061897,142.885468 
	C105.983200,139.856857 107.305267,137.940643 110.342873,138.060776 
	C112.448799,138.144073 115.390022,136.510559 116.559525,139.089935 
	C117.608643,141.403824 113.463936,145.728043 110.501259,146.045502 
	C109.746300,146.126389 108.867950,145.772171 108.203224,146.857361 
	C110.475410,149.492096 117.497116,145.907684 116.506363,152.534790 
	C115.984261,156.027176 112.690445,156.212631 109.738625,156.027115 
	C106.893967,155.848343 104.836372,154.878998 105.740845,151.049774 
z"/>
<path fill="#EEEEEE" opacity="1.000000" stroke="none" 
	d="
M99.470078,138.080490 
	C102.365959,139.123505 103.193733,141.214157 103.415985,143.637726 
	C103.805008,147.880096 101.689964,150.669846 97.951042,151.040848 
	C93.815445,151.451202 91.756889,149.296127 91.214569,145.485855 
	C90.628166,141.365921 93.016548,138.399948 97.097473,137.966003 
	C97.749016,137.896713 98.418045,137.991867 99.470078,138.080490 
z"/>
<path fill="#EBEBEB" opacity="1.000000" stroke="none" 
	d="
M120.789833,148.763397 
	C122.256371,148.895325 123.711929,149.460770 124.062492,147.868729 
	C124.525284,145.766968 122.498306,145.610626 121.285095,145.016953 
	C119.590340,144.187592 118.671638,143.016754 118.850296,141.127640 
	C119.010384,139.434799 120.027222,138.273865 121.651443,138.080933 
	C123.476875,137.864105 125.666832,137.402161 126.268608,140.124725 
	C125.110085,141.261932 124.356964,139.840347 123.409470,140.012939 
	C122.576248,140.164734 121.677704,140.143829 121.377396,141.082306 
	C121.051819,142.099716 121.889320,142.546890 122.607124,142.923935 
	C123.486534,143.385880 124.454819,143.684555 125.315117,144.175674 
	C126.786293,145.015503 127.329041,146.368698 126.952362,147.989014 
	C126.471146,150.059036 124.996674,150.962418 122.955971,151.037292 
	C121.275093,151.098953 119.225868,151.261642 118.600075,149.460266 
	C118.080681,147.965149 119.431343,148.136414 120.789833,148.763397 
z"/>
<path fill="#E3E3E3" opacity="1.000000" stroke="none" 
	d="
M78.292290,95.659027 
	C77.917404,95.625717 77.949356,95.278473 77.988441,95.108551 
	C79.446716,96.010201 80.965714,95.123093 82.261925,94.837326 
	C84.605011,94.320763 85.255028,92.497322 83.113487,91.080376 
	C79.842125,88.915878 80.967995,86.629097 82.281479,83.220306 
	C83.676308,86.372635 84.917656,88.681770 86.473251,90.844994 
	C87.886032,92.809624 86.973122,95.216743 85.021667,96.459709 
	C82.937538,97.787178 80.442886,98.694954 78.292290,95.659027 
z"/>
<path fill="#F6F6F6" opacity="1.000000" stroke="none" 
	d="
M107.508133,51.292210 
	C107.041176,50.671146 106.991135,50.123589 106.915497,49.164444 
	C107.689964,47.866173 108.490051,46.979496 109.563019,45.965511 
	C110.115021,46.033432 110.394135,46.228661 111.084190,46.727509 
	C112.078484,49.936592 110.862633,51.360188 107.508133,51.292210 
z"/>
<path fill="#696969" opacity="1.000000" stroke="none" 
	d="
M75.310043,61.063316 
	C81.106781,61.062359 86.440460,61.020348 91.773087,61.077316 
	C94.521004,61.106674 97.344788,60.827835 99.270844,58.915070 
	C101.778664,56.424561 103.160469,57.850155 104.885132,59.651741 
	C107.650017,62.539948 110.361496,65.511574 113.384621,68.111862 
	C116.938316,71.168510 116.314308,73.643898 112.934105,76.123947 
	C109.193626,78.868332 105.939308,81.826096 107.112183,87.193550 
	C107.358902,88.322624 107.169090,89.588448 108.248077,90.349960 
	C109.429909,91.184052 111.186302,91.638428 110.246559,93.679054 
	C109.665253,94.941330 108.470093,95.017662 107.263931,95.032387 
	C105.564995,95.053131 103.985214,95.064354 103.064522,93.142601 
	C101.781815,90.465248 101.660011,87.644989 101.900963,84.826706 
	C102.204933,81.271454 100.681282,80.116829 97.263626,80.232925 
	C91.770065,80.419510 86.257011,80.467674 80.768639,80.215897 
	C77.202347,80.052292 74.884781,81.793007 73.603683,84.576759 
	C72.491585,86.993294 72.315697,89.677330 75.616661,91.321968 
	C76.985138,92.003777 76.761955,94.003723 75.295486,94.547783 
	C73.166901,95.337494 70.605118,95.963593 69.126266,93.316811 
	C68.064796,91.417053 67.762344,89.251625 67.785095,87.032295 
	C67.843178,81.366325 67.604515,75.690063 67.869308,70.035934 
	C68.054710,66.076889 67.093964,62.970589 63.981525,60.349110 
	C62.576817,59.165981 59.476540,57.579956 61.926472,55.308174 
	C64.190865,53.208435 65.740532,56.189297 67.096024,57.588673 
	C69.273582,59.836735 71.429398,61.747913 75.310043,61.063316 
z"/>
<path fill="#6A6A6A" opacity="1.000000" stroke="none" 
	d="
M107.238625,51.502441 
	C108.430008,50.008369 109.768814,48.798038 111.301376,47.309418 
	C114.024895,46.208405 114.551353,41.726536 118.762619,43.498703 
	C120.147980,44.081680 119.895172,41.202045 120.409966,39.911720 
	C121.348541,37.559181 120.956856,33.445988 123.782875,33.433067 
	C126.633224,33.420029 126.225937,37.499008 127.192215,39.839680 
	C127.756645,41.206940 126.300079,45.544586 130.827332,42.668468 
	C131.624313,42.162159 133.588165,45.230270 133.928558,47.229546 
	C134.337433,49.631161 135.087524,51.114941 137.960190,51.117519 
	C140.414673,51.119720 141.144775,53.054138 141.145462,55.316967 
	C141.146744,59.534504 137.666077,63.475464 133.168442,64.066605 
	C129.557999,64.541130 125.857018,64.070045 122.287605,65.092613 
	C120.461739,65.615685 119.612923,64.123581 118.594765,63.105434 
	C114.840096,59.350780 111.119469,55.562080 107.238625,51.502441 
z"/>
<path fill="#6D6D6D" opacity="1.000000" stroke="none" 
	d="
M115.157539,83.227905 
	C115.319466,86.515892 114.323280,89.611275 117.805809,91.567703 
	C119.189751,92.345169 118.523994,94.209572 117.092659,94.710464 
	C115.866295,95.139626 113.310577,95.906654 113.271713,94.257416 
	C113.200241,91.224762 110.919655,89.653328 110.092361,87.345215 
	C108.692055,83.438370 110.295624,80.265762 114.546883,78.565407 
	C115.538422,79.900909 114.996391,81.416100 115.157539,83.227905 
z"/>
<path fill="#818181" opacity="1.000000" stroke="none" 
	d="
M116.547234,64.443680 
	C117.388084,65.702316 119.438911,66.352943 118.196068,67.800529 
	C117.079056,69.101555 116.155785,67.515724 115.411003,66.790092 
	C112.086975,63.551510 108.803146,60.270405 105.564003,56.946957 
	C104.857994,56.222569 103.326080,55.357319 104.700775,54.201336 
	C105.973389,53.131191 106.740021,54.705391 107.485275,55.425720 
	C110.464645,58.305416 113.367249,61.264542 116.547234,64.443680 
z"/>
<path fill="#696969" opacity="1.000000" stroke="none" 
	d="
M78.906151,148.846069 
	C77.532837,146.012665 78.009743,143.171738 78.117226,140.403625 
	C78.177864,138.841995 76.574837,136.083969 80.144638,135.957352 
	C82.899048,135.859680 85.027206,136.784241 85.915642,139.581009 
	C87.648186,145.034927 85.349518,148.276321 78.906151,148.846069 
z"/>
<path fill="#707070" opacity="1.000000" stroke="none" 
	d="
M108.187775,151.202759 
	C108.761322,150.574814 109.152359,150.134750 109.573990,150.103180 
	C111.129967,149.986603 112.982742,149.371201 113.809319,151.361816 
	C114.347458,152.657791 113.490685,153.699158 112.258553,153.862305 
	C110.421921,154.105469 108.124702,154.736847 108.187775,151.202759 
z"/>
<path fill="#757575" opacity="1.000000" stroke="none" 
	d="
M112.404915,143.322510 
	C110.364204,144.360092 108.857323,144.343552 108.657555,141.958420 
	C108.572014,140.937180 109.184868,140.060699 110.397827,140.022186 
	C112.560844,139.953522 113.460281,140.879440 112.404915,143.322510 
z"/>
<path fill="#6C6C6C" opacity="1.000000" stroke="none" 
	d="
M95.529388,148.459961 
	C94.866676,147.657578 94.296730,147.139465 94.204453,146.546951 
	C93.789246,143.880936 93.375534,140.903702 96.878273,140.116150 
	C99.674194,139.487488 100.779396,141.823898 100.842316,144.038528 
	C100.931076,147.162460 99.898552,149.721237 95.529388,148.459961 
z"/>
<path fill="#F0F0F0" opacity="1.000000" stroke="none" 
	d="
M130.245956,47.896778 
	C131.749603,48.027924 132.365829,48.685760 131.821854,49.824879 
	C131.451004,50.601463 130.657822,51.011127 129.858276,50.365376 
	C128.959213,49.639263 128.853027,48.783936 130.245956,47.896778 
z"/>
</svg>